<?xml version="1.0" encoding="iso-8859-1"?>
<!-- Generator: Adobe Illustrator 17.1.0, SVG Export Plug-In . SVG Version: 6.00 Build 0)  -->
<!DOCTYPE svg PUBLIC "-//W3C//DTD SVG 1.1//EN" "http://www.w3.org/Graphics/SVG/1.1/DTD/svg11.dtd">
<svg version="1.1" id="Layer_1" xmlns="http://www.w3.org/2000/svg" xmlns:xlink="http://www.w3.org/1999/xlink" x="0px" y="0px"
	 viewBox="0 0 400 400" style="enable-background:new 0 0 400 400;" xml:space="preserve">
<g>
	<g>
		<path style="fill:#FFFFFF;" d="M139.078,190.684c-1.02-1.152-2.298-2.064-3.834-2.736c-1.536-0.672-3.324-1.008-5.364-1.008h-8.64
			v25.56h8.64c1.872,0,3.564-0.306,5.076-0.918s2.796-1.476,3.852-2.592c1.056-1.116,1.872-2.46,2.448-4.032
			c0.576-1.572,0.864-3.33,0.864-5.274c0-1.752-0.252-3.402-0.756-4.95C140.86,193.186,140.098,191.836,139.078,190.684z
			 M138.97,203.878c-0.42,1.284-1.038,2.4-1.854,3.348c-0.816,0.948-1.83,1.692-3.042,2.232c-1.212,0.54-2.61,0.81-4.194,0.81
			h-6.156v-21.096h6.156c1.56,0,2.94,0.258,4.14,0.774c1.2,0.516,2.214,1.242,3.042,2.178c0.828,0.936,1.458,2.046,1.89,3.33
			c0.432,1.284,0.648,2.694,0.648,4.23C139.6,201.196,139.39,202.594,138.97,203.878z M168.849,190.864
			c-1.044-1.224-2.304-2.214-3.78-2.97c-1.476-0.756-3.102-1.134-4.878-1.134c-1.704,0-3.288,0.354-4.752,1.062
			c-1.464,0.708-2.736,1.662-3.816,2.862c-1.08,1.2-1.926,2.58-2.538,4.14c-0.612,1.56-0.918,3.192-0.918,4.896
			c0,1.632,0.288,3.228,0.864,4.788c0.576,1.56,1.392,2.946,2.448,4.158c1.056,1.212,2.322,2.184,3.798,2.916
			c1.476,0.732,3.102,1.098,4.878,1.098c1.704,0,3.288-0.354,4.752-1.062c1.464-0.708,2.73-1.656,3.798-2.844
			c1.068-1.188,1.908-2.562,2.52-4.122c0.612-1.56,0.918-3.192,0.918-4.896c0-1.608-0.288-3.186-0.864-4.734
			C170.703,193.474,169.893,192.088,168.849,190.864z M168.957,203.608c-0.444,1.272-1.074,2.412-1.89,3.42
			c-0.816,1.008-1.812,1.824-2.988,2.448c-1.176,0.624-2.484,0.936-3.924,0.936c-1.416,0-2.7-0.294-3.852-0.882
			c-1.152-0.588-2.148-1.38-2.988-2.376c-0.84-0.996-1.488-2.136-1.944-3.42c-0.456-1.284-0.684-2.622-0.684-4.014
			c0-1.32,0.222-2.616,0.666-3.888c0.444-1.272,1.074-2.412,1.89-3.42c0.816-1.008,1.812-1.818,2.988-2.43
			c1.176-0.612,2.484-0.918,3.924-0.918c1.392,0,2.664,0.294,3.816,0.882c1.152,0.588,2.148,1.374,2.988,2.358
			c0.84,0.984,1.494,2.118,1.962,3.402c0.468,1.284,0.702,2.622,0.702,4.014C169.623,201.04,169.401,202.336,168.957,203.608z
			 M192.267,204.436l-10.008-17.496h-2.556v25.56h2.484v-20.988l9.36,16.236h1.476l9.324-16.236V212.5h2.484v-25.56h-2.556
			L192.267,204.436z M214.011,212.5h2.484v-25.524h-2.484V212.5z M244.539,208.216l-16.92-21.276h-1.944v25.56h2.484v-20.88
			l16.704,20.88h2.16v-25.524h-2.484V208.216z M277.695,195.022c-0.576-1.548-1.386-2.934-2.43-4.158s-2.304-2.214-3.78-2.97
			c-1.476-0.756-3.102-1.134-4.878-1.134c-1.704,0-3.288,0.354-4.752,1.062c-1.464,0.708-2.736,1.662-3.816,2.862
			c-1.08,1.2-1.926,2.58-2.538,4.14c-0.612,1.56-0.918,3.192-0.918,4.896c0,1.632,0.288,3.228,0.864,4.788
			c0.576,1.56,1.392,2.946,2.448,4.158c1.056,1.212,2.322,2.184,3.798,2.916c1.476,0.732,3.102,1.098,4.878,1.098
			c1.704,0,3.288-0.354,4.752-1.062c1.464-0.708,2.73-1.656,3.798-2.844c1.068-1.188,1.908-2.562,2.52-4.122
			c0.612-1.56,0.918-3.192,0.918-4.896C278.559,198.148,278.271,196.57,277.695,195.022z M275.373,203.608
			c-0.444,1.272-1.074,2.412-1.89,3.42c-0.816,1.008-1.812,1.824-2.988,2.448c-1.176,0.624-2.484,0.936-3.924,0.936
			c-1.416,0-2.7-0.294-3.852-0.882c-1.152-0.588-2.148-1.38-2.988-2.376c-0.84-0.996-1.488-2.136-1.944-3.42
			c-0.456-1.284-0.684-2.622-0.684-4.014c0-1.32,0.222-2.616,0.666-3.888c0.444-1.272,1.074-2.412,1.89-3.42
			c0.816-1.008,1.812-1.818,2.988-2.43c1.176-0.612,2.484-0.918,3.924-0.918c1.392,0,2.664,0.294,3.816,0.882
			c1.152,0.588,2.148,1.374,2.988,2.358c0.84,0.984,1.494,2.118,1.962,3.402c0.468,1.284,0.702,2.622,0.702,4.014
			C276.039,201.04,275.816,202.336,275.373,203.608z"/>
	</g>
</g>
</svg>
