<?xml version="1.0" encoding="iso-8859-1"?>
<!-- Generator: Adobe Illustrator 17.1.0, SVG Export Plug-In . SVG Version: 6.00 Build 0)  -->
<!DOCTYPE svg PUBLIC "-//W3C//DTD SVG 1.1//EN" "http://www.w3.org/Graphics/SVG/1.1/DTD/svg11.dtd">
<svg version="1.1" id="Layer_1" xmlns="http://www.w3.org/2000/svg" xmlns:xlink="http://www.w3.org/1999/xlink" x="0px" y="0px"
	 viewBox="0 0 400 400" style="enable-background:new 0 0 400 400;" xml:space="preserve">
<g>
	<g>
		<path style="fill:#FFFFFF;" d="M216.936,200.109c-0.672-1.806-1.617-3.423-2.835-4.851c-1.218-1.428-2.682-2.583-4.389-3.465
			c-1.236-0.638-2.57-1.037-3.996-1.214c-0.147-0.965-0.368-1.901-0.662-2.806c-0.588-1.806-1.47-3.381-2.646-4.725
			s-2.653-2.408-4.431-3.192c-1.779-0.784-3.843-1.176-6.195-1.176h-9.912v29.82h8.457c0.168,0.902,0.411,1.794,0.737,2.676
			c0.672,1.82,1.624,3.43,2.856,4.83c1.232,1.4,2.702,2.534,4.41,3.402c1.708,0.868,3.598,1.302,5.67,1.302
			c1.988,0,3.828-0.413,5.523-1.239c1.694-0.826,3.164-1.932,4.41-3.318c1.245-1.386,2.226-2.989,2.94-4.809
			c0.714-1.82,1.071-3.738,1.071-5.754C217.944,203.742,217.608,201.915,216.936,200.109z M203.794,193.548
			c0,1.848-0.259,3.563-0.777,5.145c-0.518,1.582-1.281,2.961-2.289,4.137c-1.008,1.176-2.261,2.093-3.759,2.751
			c-1.378,0.606-2.962,0.919-4.73,0.967c-0.02-0.318-0.041-0.636-0.041-0.958c0-1.624,0.279-3.22,0.84-4.788
			c0.56-1.568,1.351-2.975,2.373-4.221c1.022-1.246,2.261-2.247,3.717-3.003c1.387-0.721,2.933-1.087,4.627-1.121
			C203.776,192.817,203.794,193.177,203.794,193.548z M184.012,206.568v-25.956h7.77c1.932,0,3.639,0.322,5.124,0.966
			c1.484,0.644,2.737,1.54,3.759,2.688c1.022,1.148,1.799,2.513,2.331,4.095c0.229,0.683,0.4,1.399,0.53,2.136
			c-1.791,0.066-3.471,0.459-5.028,1.212c-1.708,0.826-3.185,1.939-4.431,3.339c-1.246,1.4-2.226,3.01-2.94,4.83
			c-0.714,1.82-1.071,3.724-1.071,5.712c0,0.328,0.023,0.653,0.043,0.978H184.012z M214.962,210.378
			c-0.56,1.568-1.359,2.975-2.394,4.221c-1.036,1.246-2.275,2.247-3.717,3.003c-1.443,0.756-3.06,1.134-4.851,1.134
			c-1.737,0-3.325-0.364-4.767-1.092c-1.443-0.728-2.688-1.701-3.738-2.919s-1.862-2.618-2.436-4.2
			c-0.244-0.673-0.425-1.359-0.565-2.055c1.872-0.071,3.594-0.407,5.148-1.041c1.749-0.714,3.24-1.722,4.473-3.024
			c1.232-1.302,2.177-2.87,2.835-4.704c0.657-1.834,0.987-3.885,0.987-6.153c0-0.313-0.02-0.618-0.034-0.926
			c0.989,0.172,1.934,0.466,2.823,0.914c1.442,0.728,2.688,1.701,3.738,2.919c1.05,1.218,1.869,2.618,2.457,4.2
			c0.588,1.582,0.882,3.227,0.882,4.935C215.802,207.214,215.522,208.81,214.962,210.378z"/>
	</g>
</g>
</svg>
